<svg width="42" height="42" viewBox="0 0 42 42" fill="none" xmlns="http://www.w3.org/2000/svg">
<path fill-rule="evenodd" clip-rule="evenodd" d="M23.7312 2.19716C24.6053 2.47272 25.1998 3.28342 25.1998 4.20001V14.7L33.5998 14.7C34.3829 14.7 35.1009 15.1357 35.4625 15.8302C35.8241 16.5247 35.7692 17.3628 35.3202 18.0043L20.6202 39.0043C20.0946 39.7552 19.1427 40.0784 18.2685 39.8029C17.3943 39.5273 16.7998 38.7166 16.7998 37.8L16.7998 27.3H8.39981C7.61677 27.3 6.89877 26.8643 6.53716 26.1698C6.17554 25.4753 6.23038 24.6372 6.67942 23.9957L21.3794 2.99573C21.9051 2.24484 22.857 1.92159 23.7312 2.19716Z" fill="white"/>
</svg>
