<svg width="42" height="42" viewBox="0 0 42 42" fill="none" xmlns="http://www.w3.org/2000/svg">
<path d="M23.1002 6.29995C23.1002 5.14015 22.16 4.19995 21.0002 4.19995C19.8404 4.19995 18.9002 5.14015 18.9002 6.29995V8.39995C18.9002 9.55975 19.8404 10.5 21.0002 10.5C22.16 10.5 23.1002 9.55975 23.1002 8.39995V6.29995Z" fill="white"/>
<path d="M32.8795 12.0903C33.6996 11.2702 33.6996 9.94055 32.8795 9.12045C32.0594 8.30035 30.7298 8.30035 29.9097 9.12045L28.4247 10.6054C27.6046 11.4255 27.6046 12.7551 28.4247 13.5752C29.2448 14.3953 30.5745 14.3953 31.3946 13.5752L32.8795 12.0903Z" fill="white"/>
<path d="M37.8002 21C37.8002 22.1597 36.86 23.1 35.7002 23.1H33.6002C32.4404 23.1 31.5002 22.1597 31.5002 21C31.5002 19.8402 32.4404 18.9 33.6002 18.9H35.7002C36.86 18.9 37.8002 19.8402 37.8002 21Z" fill="white"/>
<path d="M10.6056 13.5753C11.4257 14.3954 12.7553 14.3954 13.5754 13.5753C14.3955 12.7552 14.3955 11.4255 13.5754 10.6054L12.0905 9.12048C11.2704 8.30038 9.94077 8.30038 9.12067 9.12048C8.30057 9.94058 8.30057 11.2702 9.12067 12.0903L10.6056 13.5753Z" fill="white"/>
<path d="M10.5002 21C10.5002 22.1597 9.55999 23.1 8.4002 23.1H6.3002C5.1404 23.1 4.2002 22.1597 4.2002 21C4.2002 19.8402 5.1404 18.9 6.3002 18.9H8.4002C9.55999 18.9 10.5002 19.8402 10.5002 21Z" fill="white"/>
<path d="M16.8002 33.5999V31.5H25.2002V33.5999C25.2002 35.9195 23.3198 37.7999 21.0002 37.7999C18.6806 37.7999 16.8002 35.9195 16.8002 33.5999Z" fill="white"/>
<path d="M25.2021 29.4C25.2327 28.6853 25.6361 28.0427 26.2015 27.5963C28.1498 26.058 29.4002 23.675 29.4002 21C29.4002 16.3608 25.6394 12.6 21.0002 12.6C16.361 12.6 12.6002 16.3608 12.6002 21C12.6002 23.675 13.8506 26.058 15.7989 27.5963C16.3642 28.0427 16.7677 28.6853 16.7983 29.4H25.2021Z" fill="white"/>
</svg>
