<svg width="180" height="180" viewBox="0 0 180 180" fill="none" xmlns="http://www.w3.org/2000/svg">
<g clip-path="url(#clip0_4237_273)">
<path d="M180 0H0V180H180V0Z" fill="#F6F5F5"/>
<path d="M135.39 71.1C135.87 71.93 135.29 75.15 134.87 76.12C133.82 78.48 129.04 81.08 126.64 81.89C124.76 82.53 121.06 82.73 119.8 83.55C119.16 83.96 116.28 89.08 116.22 89.76C116.07 91.47 122.15 102.54 122.49 106.31C122.59 107.38 121.65 114.11 121.25 114.99C113.55 120.6 102.33 135.15 92.25 135.04C71.7299 134.81 62.07 129.32 49.52 113.74C45.67 108.95 43.26 103.05 39.58 98.13C38.95 93.55 44.18 96.83 44.5 96.5L39.9799 80.24L42.52 70.9C47.2 66.52 45.8199 75.45 50.8699 76.88C54.8599 78.01 52.86 75.73 53.72 74.47C55.01 72.57 58.19 75.69 59.5 76.25C65.26 78.71 72.2 80.06 78.33 81.42C80.32 81.86 84.8199 84.23 85.8099 81.03C86.7999 77.83 84.3499 77.22 83.1299 75.13C80.1999 70.09 81.21 65.21 82.65 59.9C83.39 57.17 84.7799 52.5 87.0299 50.78C88.3599 49.77 97.95 44.91 99.36 44.62C103.3 43.8 114.14 47.36 117.47 49.79C123.44 54.13 121.92 63.84 125.77 67.99C127.76 70.13 134.23 69.11 135.39 71.11V71.1ZM117.37 52.62C116.53 51.72 111.47 50.55 109.88 49.86C107.46 48.81 105.36 46.3 102.27 46.51C100.88 46.61 89.85 52.23 88.72 53.47C85.19 57.34 83.81 67.84 85.47 72.76C86.85 76.84 90.66 78.81 87.41 83.16C85.73 85.41 81.1399 85.14 78.4599 84.76C74.4399 84.19 68.1099 82.35 64.0999 81.12C61.2799 80.25 57.9599 79.43 55.7299 77.49C55.7399 83.7 53.14 81.85 49.52 79.2C48.1 78.16 46.93 76.76 45.68 75.54C45.28 75.14 45.2799 74.8 44.4799 75L43.08 80.64L49.2599 100.76C49.0699 102.71 48.1 102.09 46.7 101.54C46.09 101.3 44.43 99.41 44.49 101.25C47.88 107.98 52.29 113.81 57.47 119.27C63.34 125.46 66.4799 127.92 74.8799 130.36C78.6699 131.46 91.51 133.06 95.12 132.38C99.33 131.59 110.96 122.61 113.97 119.23C119.89 112.6 121.12 109.03 118.21 100.52C117.62 98.8 113.48 90.41 113.58 89.84C113.67 89.32 118.52 81.02 118.98 80.75C119.78 80.28 125.07 79.78 127.16 78.93C129.52 77.98 132.29 76.43 132.98 73.76C127.45 71.18 125.31 74.86 122.6 68.13C121.45 65.27 118.71 54.07 117.35 52.62H117.37Z" fill="black"/>
<path d="M109.88 64.12C111.15 65.41 110.76 70.32 107.48 69.28C101.84 67.5 107.25 61.44 109.88 64.12Z" fill="black"/>
</g>
<defs>
<clipPath id="clip0_4237_273">
<rect width="180" height="180" fill="white"/>
</clipPath>
</defs>
</svg>
