<svg width="42" height="42" viewBox="0 0 42 42" fill="none" xmlns="http://www.w3.org/2000/svg">
<path d="M20.0482 4.66395C20.4252 3.85599 21.5742 3.85599 21.9512 4.66395L26.9632 15.4041C27.0675 15.6275 27.2472 15.8072 27.4707 15.9115L38.2108 20.9236C39.0187 21.3005 39.0187 22.4496 38.2108 22.8265L27.4707 27.8385C27.2472 27.9428 27.0675 28.1225 26.9632 28.346L21.9512 39.0861C21.5742 39.8941 20.4252 39.8941 20.0482 39.0861L15.0362 28.346C14.9318 28.1225 14.7522 27.9428 14.5287 27.8385L3.78859 22.8265C2.98063 22.4496 2.98063 21.3005 3.78859 20.9236L14.5287 15.9115C14.7522 15.8072 14.9318 15.6275 15.0362 15.4041L20.0482 4.66395Z" stroke="white" stroke-width="2" stroke-linecap="round" stroke-linejoin="round"/>
</svg>
