<svg width="42" height="42" viewBox="0 0 42 42" fill="none" xmlns="http://www.w3.org/2000/svg">
<path d="M20.0482 4.66407C20.4252 3.85612 21.5742 3.85612 21.9512 4.66407L26.9632 15.4042C27.0675 15.6277 27.2472 15.8073 27.4707 15.9116L38.2108 20.9237C39.0187 21.3006 39.0187 22.4497 38.2108 22.8266L27.4707 27.8386C27.2472 27.9429 27.0675 28.1227 26.9632 28.3461L21.9512 39.0862C21.5742 39.8942 20.4252 39.8942 20.0482 39.0862L15.0361 28.3461C14.9318 28.1227 14.7522 27.9429 14.5287 27.8386L3.78859 22.8266C2.98063 22.4497 2.98063 21.3006 3.78859 20.9237L14.5287 15.9116C14.7522 15.8073 14.9318 15.6277 15.0361 15.4042L20.0482 4.66407Z" fill="white"/>
</svg>
