<svg width="42" height="42" viewBox="0 0 42 42" fill="none" xmlns="http://www.w3.org/2000/svg">
<path fill-rule="evenodd" clip-rule="evenodd" d="M37.8002 21.0002C37.8002 30.2786 30.2786 37.8002 21.0002 37.8002C11.7218 37.8002 4.2002 30.2786 4.2002 21.0002C4.2002 11.7218 11.7218 4.2002 21.0002 4.2002C30.2786 4.2002 37.8002 11.7218 37.8002 21.0002ZM23.1002 12.6002C23.1002 13.76 22.16 14.7002 21.0002 14.7002C19.8404 14.7002 18.9002 13.76 18.9002 12.6002C18.9002 11.4404 19.8404 10.5002 21.0002 10.5002C22.16 10.5002 23.1002 11.4404 23.1002 12.6002ZM18.9002 18.9002C17.7404 18.9002 16.8002 19.8404 16.8002 21.0002C16.8002 22.16 17.7404 23.1002 18.9002 23.1002V29.4002C18.9002 30.56 19.8404 31.5002 21.0002 31.5002H23.1002C24.26 31.5002 25.2002 30.56 25.2002 29.4002C25.2002 28.2404 24.26 27.3002 23.1002 27.3002V21.0002C23.1002 19.8404 22.16 18.9002 21.0002 18.9002H18.9002Z" fill="white"/>
</svg>
