<svg width="32" height="32" viewBox="0 0 32 32" fill="none" xmlns="http://www.w3.org/2000/svg">
<path d="M17.6004 4.79995C17.6004 3.91629 16.884 3.19995 16.0004 3.19995C15.1167 3.19995 14.4004 3.91629 14.4004 4.79995V6.39995C14.4004 7.28361 15.1167 7.99999 16.0004 7.99999C16.884 7.99999 17.6004 7.28361 17.6004 6.39995V4.79995Z" fill="white"/>
<path d="M25.0512 9.21166C25.6761 8.58682 25.6761 7.57375 25.0512 6.94891C24.4264 6.32408 23.4134 6.32408 22.7885 6.94891L21.6571 8.0803C21.0323 8.70514 21.0323 9.71817 21.6571 10.343C22.2819 10.9678 23.295 10.9678 23.9199 10.343L25.0512 9.21166Z" fill="white"/>
<path d="M28.8 16C28.8 16.8836 28.0837 17.6 27.2 17.6H25.6C24.7163 17.6 24 16.8836 24 16C24 15.1164 24.7163 14.4 25.6 14.4H27.2C28.0837 14.4 28.8 15.1164 28.8 16Z" fill="white"/>
<path d="M8.08047 10.3431C8.70531 10.9679 9.71834 10.9679 10.3432 10.3431C10.968 9.71823 10.968 8.70512 10.3432 8.08028L9.21182 6.94891C8.58699 6.32408 7.57394 6.32408 6.9491 6.94891C6.32426 7.57375 6.32426 8.5868 6.9491 9.21163L8.08047 10.3431Z" fill="white"/>
<path d="M8.0002 16C8.0002 16.8836 7.28384 17.6 6.4002 17.6H4.8002C3.91654 17.6 3.2002 16.8836 3.2002 16C3.2002 15.1164 3.91654 14.4 4.8002 14.4H6.4002C7.28384 14.4 8.0002 15.1164 8.0002 16Z" fill="white"/>
<path d="M12.7998 25.5999V24H19.1998V25.5999C19.1998 27.3672 17.7671 28.7999 15.9998 28.7999C14.2325 28.7999 12.7998 27.3672 12.7998 25.5999Z" fill="white"/>
<path d="M19.202 22.4C19.2253 21.8554 19.5327 21.3658 19.9635 21.0257C21.4479 19.8537 22.4006 18.0381 22.4006 16C22.4006 12.4653 19.5352 9.59998 16.0006 9.59998C12.466 9.59998 9.60059 12.4653 9.60059 16C9.60059 18.0381 10.5533 19.8537 12.0377 21.0257C12.4684 21.3658 12.7758 21.8554 12.7991 22.4H19.202Z" fill="white"/>
</svg>
