<svg width="32" height="32" viewBox="0 0 32 32" fill="none" xmlns="http://www.w3.org/2000/svg">
<path fill-rule="evenodd" clip-rule="evenodd" d="M28.8002 16.0001C28.8002 23.0694 23.0695 28.8001 16.0002 28.8001C8.93094 28.8001 3.2002 23.0694 3.2002 16.0001C3.2002 8.93088 8.93094 3.20013 16.0002 3.20013C23.0695 3.20013 28.8002 8.93088 28.8002 16.0001ZM17.6002 9.60013C17.6002 10.4838 16.8839 11.2001 16.0002 11.2001C15.1165 11.2001 14.4002 10.4838 14.4002 9.60013C14.4002 8.71648 15.1165 8.00013 16.0002 8.00013C16.8839 8.00013 17.6002 8.71648 17.6002 9.60013ZM14.4002 14.4001C13.5165 14.4001 12.8002 15.1165 12.8002 16.0001C12.8002 16.8838 13.5165 17.6001 14.4002 17.6001V22.4001C14.4002 23.2838 15.1165 24.0001 16.0002 24.0001H17.6002C18.4839 24.0001 19.2002 23.2838 19.2002 22.4001C19.2002 21.5165 18.4839 20.8001 17.6002 20.8001V16.0001C17.6002 15.1165 16.8839 14.4001 16.0002 14.4001H14.4002Z" fill="white"/>
</svg>
